<?xml version="1.0" standalone="no"?>
<!DOCTYPE svg PUBLIC "-//W3C//DTD SVG 20010904//EN"
 "http://www.w3.org/TR/2001/REC-SVG-20010904/DTD/svg10.dtd">
<svg version="1.0" xmlns="http://www.w3.org/2000/svg"
 width="186.000000pt" height="186.000000pt" viewBox="0 0 186.000000 186.000000"
 preserveAspectRatio="xMidYMid meet">
<metadata>
Created by potrace 1.11, written by Peter Selinger 2001-2013
</metadata>
<g transform="translate(0.000000,186.000000) scale(0.100000,-0.100000)"
fill="#000000" stroke="none">
<path d="M624 1477 c-10 -27 1 -150 14 -155 9 -3 12 17 12 77 0 74 -13 112
-26 78z"/>
<path d="M700 1335 c0 -65 3 -86 13 -82 8 2 12 28 12 82 0 54 -4 80 -12 83
-10 3 -13 -18 -13 -83z"/>
<path d="M780 1295 c0 -50 4 -85 10 -85 6 0 10 35 10 85 0 50 -4 85 -10 85 -6
0 -10 -35 -10 -85z"/>
<path d="M860 1260 c0 -53 4 -90 10 -90 6 0 10 37 10 90 0 53 -4 90 -10 90 -6
0 -10 -37 -10 -90z"/>
<path d="M940 1235 c0 -50 4 -85 10 -85 6 0 10 35 10 85 0 50 -4 85 -10 85 -6
0 -10 -35 -10 -85z"/>
<path d="M1015 1298 c-10 -24 -1 -163 10 -163 13 0 19 155 6 168 -7 7 -12 5
-16 -5z"/>
<path d="M1064 1215 c0 -49 1 -71 3 -48 2 23 2 64 0 90 -2 26 -3 8 -3 -42z"/>
<path d="M1092 1218 c4 -105 23 -107 23 -1 0 53 -4 78 -13 81 -10 3 -12 -15
-10 -80z"/>
<path d="M1144 1215 c0 -49 1 -71 3 -48 2 23 2 64 0 90 -2 26 -3 8 -3 -42z"/>
<path d="M1170 1215 c0 -50 4 -85 10 -85 6 0 10 35 10 85 0 50 -4 85 -10 85
-6 0 -10 -35 -10 -85z"/>
<path d="M1217 1293 c-11 -11 -8 -163 3 -163 6 0 10 35 10 85 0 85 -1 91 -13
78z"/>
<path d="M1250 1215 c0 -50 4 -85 10 -85 6 0 10 35 10 85 0 50 -4 85 -10 85
-6 0 -10 -35 -10 -85z"/>
<path d="M980 1210 c0 -47 4 -80 10 -80 6 0 10 33 10 80 0 47 -4 80 -10 80 -6
0 -10 -33 -10 -80z"/>
<path d="M900 1195 c0 -50 4 -85 10 -85 6 0 10 35 10 85 0 50 -4 85 -10 85 -6
0 -10 -35 -10 -85z"/>
<path d="M820 1170 c0 -47 4 -80 10 -80 6 0 10 33 10 80 0 47 -4 80 -10 80 -6
0 -10 -33 -10 -80z"/>
<path d="M747 1213 c-11 -10 -8 -151 3 -158 6 -4 10 25 10 79 0 86 -1 92 -13
79z"/>
<path d="M674 1095 c0 -49 1 -71 3 -48 2 23 2 64 0 90 -2 26 -3 8 -3 -42z"/>
<path d="M590 1025 c0 -55 4 -84 10 -80 6 3 10 39 10 80 0 41 -4 77 -10 80 -6
4 -10 -25 -10 -80z"/>
<path d="M764 856 c-57 -25 -70 -119 -23 -162 30 -27 91 -25 123 5 35 33 37
107 4 139 -31 28 -67 34 -104 18z m66 -46 c11 -11 20 -28 20 -38 0 -24 -28
-62 -45 -62 -40 0 -60 73 -29 104 20 21 30 20 54 -4z"/>
<path d="M620 845 c0 -8 5 -15 10 -15 6 0 10 -27 10 -60 0 -33 -4 -60 -10 -60
-5 0 -10 -7 -10 -15 0 -11 11 -15 40 -15 29 0 40 4 40 15 0 8 -4 15 -10 15 -6
0 -10 27 -10 60 0 33 4 60 10 60 6 0 10 7 10 15 0 11 -11 15 -40 15 -29 0 -40
-4 -40 -15z"/>
<path d="M900 846 c0 -9 12 -16 28 -18 26 -3 27 -5 30 -75 3 -65 5 -73 22 -73
18 0 20 7 20 75 0 73 1 75 25 75 16 0 25 6 25 15 0 12 -15 15 -75 15 -58 0
-75 -3 -75 -14z"/>
<path d="M1104 813 c-9 -27 -23 -63 -31 -82 -18 -46 -17 -51 11 -51 15 0 26 7
29 20 4 14 14 20 35 20 21 0 31 -6 35 -20 3 -13 14 -20 30 -20 l26 0 -32 90
c-29 83 -34 90 -59 90 -22 0 -29 -7 -44 -47z m49 -61 c-21 -5 -25 2 -17 34 l7
29 13 -30 c10 -25 10 -31 -3 -33z"/>
<path d="M756 542 c-3 -6 -1 -14 5 -17 15 -10 25 3 12 16 -7 7 -13 7 -17 1z"/>
<path d="M55 475 c0 -58 2 -65 20 -65 18 0 20 7 20 65 0 58 -2 65 -20 65 -18
0 -20 -7 -20 -65z"/>
<path d="M1096 521 c-43 -47 5 -123 67 -107 22 5 27 12 27 36 0 27 -3 30 -32
30 -31 -1 -32 -1 -14 -15 23 -17 10 -40 -17 -29 -22 8 -30 39 -17 65 9 16 19
20 41 17 20 -3 29 0 29 9 0 21 -64 16 -84 -6z"/>
<path d="M233 510 c-8 -12 -9 -21 -3 -25 6 -3 10 -20 10 -36 0 -29 23 -50 38
-34 4 4 1 10 -5 12 -7 3 -13 15 -13 28 0 13 6 26 13 29 10 5 10 7 0 12 -7 3
-13 12 -13 20 0 20 -13 17 -27 -6z"/>
<path d="M692 513 c-23 -45 12 -123 42 -93 7 7 6 10 -2 10 -7 0 -12 10 -12 23
0 13 5 28 12 35 9 9 9 12 0 12 -7 0 -12 7 -12 15 0 20 -17 19 -28 -2z"/>
<path d="M1317 512 c-12 -13 -15 -22 -8 -27 6 -3 11 -20 11 -36 0 -29 23 -50
38 -34 4 4 1 10 -5 12 -7 3 -13 15 -13 28 0 13 6 26 13 28 8 4 9 8 1 14 -6 4
-13 14 -15 21 -3 10 -9 8 -22 -6z"/>
<path d="M120 453 c0 -23 5 -43 10 -43 6 0 10 13 10 29 0 29 21 57 33 44 4 -3
7 -21 7 -40 0 -18 5 -33 10 -33 6 0 10 20 10 45 l0 45 -40 -2 -40 -1 0 -44z"/>
<path d="M301 478 c-16 -41 34 -87 62 -59 8 8 5 11 -10 11 -12 0 -25 5 -28 10
-4 6 7 10 24 10 17 0 31 4 31 9 0 45 -63 60 -79 19z m54 2 c3 -5 -3 -10 -15
-10 -12 0 -18 5 -15 10 3 6 10 10 15 10 5 0 12 -4 15 -10z"/>
<path d="M400 481 c-14 -27 -13 -37 6 -56 10 -10 24 -13 36 -9 15 4 19 2 16
-7 -3 -8 -17 -15 -31 -17 -30 -4 -27 -22 4 -22 34 0 59 36 59 85 l0 45 -40 0
c-29 0 -42 -5 -50 -19z m58 -27 c-4 -25 -32 -24 -36 0 -4 21 18 40 31 27 5 -5
7 -17 5 -27z"/>
<path d="M512 458 c4 -53 28 -64 28 -14 0 25 4 36 15 36 29 0 14 17 -16 18
-29 1 -30 0 -27 -40z"/>
<path d="M590 492 c0 -6 9 -8 20 -5 11 3 20 1 20 -5 0 -5 -12 -13 -26 -16 -19
-5 -25 -12 -22 -29 2 -18 10 -22 41 -23 l38 -1 -3 41 c-3 38 -5 41 -35 44 -18
2 -33 -1 -33 -6z m40 -47 c0 -8 -7 -15 -15 -15 -26 0 -18 20 13 29 1 1 2 -6 2
-14z"/>
<path d="M760 455 c0 -25 5 -45 10 -45 6 0 10 20 10 45 0 25 -4 45 -10 45 -5
0 -10 -20 -10 -45z"/>
<path d="M810 485 c-7 -8 -10 -25 -6 -39 11 -46 81 -46 92 0 8 31 -11 54 -46
54 -15 0 -33 -7 -40 -15z m55 -25 c0 -27 -22 -39 -31 -16 -8 22 3 49 19 43 6
-2 12 -14 12 -27z"/>
<path d="M920 455 c0 -25 5 -45 10 -45 6 0 10 13 10 29 0 29 21 57 33 44 4 -3
7 -21 7 -40 0 -18 5 -33 10 -33 6 0 10 20 10 45 l0 45 -40 0 -40 0 0 -45z"/>
<path d="M1210 492 c0 -6 8 -8 19 -5 10 3 22 0 25 -6 4 -6 0 -11 -8 -11 -8 0
-22 -7 -31 -16 -21 -21 -6 -38 36 -40 29 -2 30 -1 27 40 -3 38 -5 41 -35 44
-18 2 -33 -1 -33 -6z m50 -41 c0 -12 -20 -25 -27 -18 -7 7 6 27 18 27 5 0 9
-4 9 -9z"/>
<path d="M1384 486 c-16 -42 16 -86 52 -71 18 8 18 8 -1 13 -36 8 -41 22 -7
22 32 0 37 6 26 34 -8 20 -63 21 -70 2z m51 -6 c3 -5 -3 -10 -15 -10 -12 0
-18 5 -15 10 3 6 10 10 15 10 5 0 12 -4 15 -10z"/>
<path d="M1476 478 c23 -75 39 -88 50 -43 8 31 22 32 26 3 5 -38 30 -26 43 20
11 35 11 42 -1 42 -8 0 -14 -10 -14 -25 0 -14 -4 -25 -10 -25 -5 0 -10 12 -10
26 0 33 -33 30 -38 -4 -5 -30 -22 -28 -22 3 0 16 -6 25 -16 25 -11 0 -14 -6
-8 -22z"/>
<path d="M1630 492 c0 -6 9 -8 20 -5 11 3 20 1 20 -5 0 -5 -12 -13 -26 -16
-19 -5 -25 -12 -22 -29 2 -18 10 -22 41 -23 l38 -1 -3 41 c-3 38 -5 41 -35 44
-18 2 -33 -1 -33 -6z m40 -47 c0 -8 -7 -15 -15 -15 -26 0 -18 20 13 29 1 1 2
-6 2 -14z"/>
<path d="M1720 491 c0 -5 7 -26 16 -47 15 -35 15 -39 -2 -51 -20 -14 -13 -28
10 -20 15 6 41 57 52 104 9 36 -14 27 -24 -9 -10 -34 -12 -32 -28 20 -4 14
-24 17 -24 3z"/>
</g>
</svg>
